<svg xmlns="http://www.w3.org/2000/svg" xmlns:xlink="http://www.w3.org/1999/xlink" version="1.1" x="0px" y="0px" viewBox="0 0 100 125" enable-background="new 0 0 100 100" xml:space="preserve"><g><g><g><path d="M50,98.5C23.2,98.5,1.5,76.8,1.5,50C1.5,23.2,23.2,1.5,50,1.5c26.8,0,48.5,21.8,48.5,48.5C98.5,76.8,76.8,98.5,50,98.5z      M50,3C24.1,3,3,24.1,3,50c0,25.9,21.1,47,47,47c25.9,0,47-21.1,47-47C97,24.1,75.9,3,50,3z"/></g><g><rect x="2.2" y="49.2" width="96" height="1.5"/></g></g><g><path d="M49.3,29.6c-5.4,0-10.3-0.6-14.4-1.3c-13.2-2.5-21.9-7.6-22.4-8.2l0.1-1l1.1,1.1l-0.5-0.5l0.8,0c0-0.3-0.2-0.5-0.2-0.5    c0.3,0.2,2.5,1.6,6.3,3.2c3.4,1.4,8.9,3.4,15.8,4.6c11.8,2.1,30.3,2.4,50.8-8l0.7,1.4C73.2,27.4,60,29.6,49.3,29.6z"/></g><g><path d="M86.7,80.5c-20.5-10.4-38.9-10.1-50.8-8c-6.9,1.2-12.4,3.2-15.8,4.6c-3.8,1.6-6,3-6.3,3.2c0,0,0.2-0.2,0.2-0.5l-0.8,0    l-0.5,0.5l-0.1-1c0.5-0.6,9.2-5.8,22.4-8.2c12.2-2.3,31.2-2.7,52.3,8L86.7,80.5z"/></g><g><path d="M50,98.5c-13.9,0-25.2-21.8-25.2-48.7c0-12.8,2.6-24.9,7.2-34C36.8,6.6,43.2,1.5,50,1.5c6.8,0,13.2,5.1,18,14.4    c4.7,9.1,7.2,21.2,7.2,34C75.2,76.7,63.9,98.5,50,98.5z M50,3C36.9,3,26.3,24,26.3,49.8c0,12.6,2.5,24.5,7.1,33.5    C37.9,92.2,43.8,97,50,97c6.2,0,12.1-4.9,16.6-13.7c4.6-9,7.1-20.9,7.1-33.5C73.7,24,63.1,3,50,3z"/></g><g><rect x="49.2" y="2.2" width="1.5" height="95.6"/></g></g><text x="0" y="115" fill="#000000" font-size="5px" font-weight="bold" font-family="'Helvetica Neue', Helvetica, Arial-Unicode, Arial, Sans-serif">Created by Edda Detter</text><text x="0" y="120" fill="#000000" font-size="5px" font-weight="bold" font-family="'Helvetica Neue', Helvetica, Arial-Unicode, Arial, Sans-serif">from the Noun Project</text></svg>